<?xml version="1.0" encoding="UTF-8" standalone="no"?>
<!DOCTYPE svg PUBLIC "-//W3C//DTD SVG 1.1//EN" "http://www.w3.org/Graphics/SVG/1.1/DTD/svg11.dtd">
<svg width="100%" height="100%" viewBox="0 0 263 284" version="1.1" xmlns="http://www.w3.org/2000/svg" xmlns:xlink="http://www.w3.org/1999/xlink" xml:space="preserve" xmlns:serif="http://www.serif.com/" style="fill-rule:evenodd;clip-rule:evenodd;stroke-linejoin:round;stroke-miterlimit:2;">
    <g transform="matrix(4.16667,0,0,4.16667,0,0)">
        <path d="M48.218,27.9C44.813,27.9 42.043,25.13 42.043,21.726C42.043,18.321 44.813,15.551 48.218,15.551C51.623,15.551 54.393,18.321 54.393,21.726C54.393,25.13 51.623,27.9 48.218,27.9ZM26.243,60.775C15.756,60.775 7.225,52.244 7.225,41.757C7.225,31.27 15.756,22.738 26.243,22.738C36.73,22.738 45.262,31.27 45.262,41.757C45.262,52.244 36.73,60.775 26.243,60.775ZM39.719,8.091C41.35,8.091 42.676,9.417 42.676,11.047C42.676,12.678 41.35,14.004 39.719,14.004C38.089,14.004 36.763,12.678 36.763,11.047C36.763,9.417 38.089,8.091 39.719,8.091ZM62.152,22.278C62.152,14.968 56.765,8.711 49.571,7.593C48.103,3.398 44.184,0.603 39.719,0.603C33.962,0.603 29.279,5.29 29.279,11.052C29.279,12.733 29.681,14.371 30.447,15.849C29.064,15.626 27.655,15.514 26.243,15.514C11.772,15.514 0,27.286 0,41.757C0,56.228 11.772,68 26.243,68C40.714,68 52.487,56.228 52.487,41.757C52.487,39.972 52.3,38.173 51.932,36.402C57.973,34.409 62.152,28.668 62.152,22.278Z" style="fill:rgb(247,147,29);fill-rule:nonzero;"/>
        <path d="M26.243,30.311C19.922,30.311 14.797,35.436 14.797,41.757C14.797,48.078 19.922,53.203 26.243,53.203C32.564,53.203 37.689,48.078 37.689,41.757C37.689,35.436 32.564,30.311 26.243,30.311Z" style="fill:rgb(247,147,29);fill-rule:nonzero;"/>
    </g>
</svg>
